<?xml version="1.0" encoding="UTF-8"?> <svg xmlns="http://www.w3.org/2000/svg" width="500" height="500" fill="none"><path opacity=".05" d="M329.221 58.347s-73.45-21.63-146 22.12-109.49 125.32-141.22 190.78c-31.73 65.46-14.15 129.57 40.82 156.5 54.97 26.93 92.77-18.6 170.17-24.54 77.4-5.94 98.14 3.72 162.63-41.6s76.76-145.46 26.59-216.64c-50.17-71.18-112.99-86.62-112.99-86.62z" fill="#6281C1"></path><path d="M71.931 439.227s-24.77-52.76-19.39-54.28c5.38-1.52 16.66 6.88 16.66 6.88s-33.1-88.7-24.53-95.58c8.57-6.88 24.57 28.33 24.57 28.33s-17.09-54.33-15.08-75 23.72-.76 23.72-.76-17.39-74.17-1.24-78c16.15-3.83 15.61 84.87 15.61 84.87s5.3-63.47 11.77-45.88c6.47 17.59-7.13 76.46-7.13 76.46s8.87-19.88 13.8-1.53c4.93 18.35-9.8 92.52-9.8 92.52s12.52-12.23 13.69 3.06c1.17 15.29-25.92 62.7-25.92 62.7l-15.33 1.56-1.4-5.35z" fill="#3B62B2"></path><path opacity=".6" d="M71.931 439.227s-24.77-52.76-19.39-54.28c5.38-1.52 16.66 6.88 16.66 6.88s-33.1-88.7-24.53-95.58c8.57-6.88 24.57 28.33 24.57 28.33s-17.09-54.33-15.08-75 23.72-.76 23.72-.76-17.39-74.17-1.24-78c16.15-3.83 15.61 84.87 15.61 84.87s5.3-63.47 11.77-45.88c6.47 17.59-7.13 76.46-7.13 76.46s8.87-19.88 13.8-1.53c4.93 18.35-9.8 92.52-9.8 92.52s12.52-12.23 13.69 3.06c1.17 15.29-25.92 62.7-25.92 62.7l-15.33 1.56-1.4-5.35z" fill="#fff"></path><path d="M77.21 441.577s-20.64-36.7-16.82-43.59c3.82-6.89 15.29 9.18 15.29 9.18s-26-65-22.17-71.11c3.83-6.11 16.06 20.65 16.06 20.65s-4.57-89.51 3.05-86.46c7.62 3.05 8.38 45.88 8.38 45.88s-4.58-101.69 2.3-98.63c6.88 3.06 6.12 116.22 6.12 116.22s13.76-43.59 16-23.71c2.24 19.88-17.58 73.41-17.58 73.41s19.16-42.06 21.49-19.84c2.33 22.22-15.33 63.42-15.33 63.42s6.88-16.82 6.88-7.65-5.35 20.65-5.35 20.65" stroke="#003549" stroke-linecap="round" stroke-linejoin="round"></path><path d="M51.432 398.037l-13.17 43.4h35.67l13.57-43.17-36.07-.23z" fill="#003549" stroke="#003549" stroke-linecap="round" stroke-linejoin="round"></path><path d="M134.604 441.367h-74.33l-8.84-43.33h74.33l8.84 43.33z" fill="#fff" stroke="#003549" stroke-linecap="round" stroke-linejoin="round"></path><path d="M126.943 434.037h-62l-4.63-22.67h61.999l4.631 22.67zM65.64 411.457l4.59 22.48M71.332 411.457l4.59 22.48M77.023 411.457l4.59 22.48M82.703 411.457l4.59 22.48M88.39 411.457l4.59 22.48M94.082 411.457l4.59 22.48M99.762 411.457l4.59 22.48M105.453 411.457l4.59 22.48M111.133 411.457l4.59 22.48M116.82 411.457l4.59 22.48M61.371 415.847h61.65M62.293 420.367h61.65M63.223 424.897h61.64M64.14 429.417h61.651" stroke="#003549" stroke-linecap="round" stroke-linejoin="round"></path><path d="M87.322 407.447h-27.53l-.44-2.2h27.52l.45 2.2z" fill="#003549"></path><path d="M462.999 330.577h-89.66a17.691 17.691 0 00-17.12 15.38l-11 97.23h105l12.78-112.61z" fill="#fff" stroke="#003549" stroke-linecap="round" stroke-linejoin="round"></path><path d="M463.471 330.577a14.69 14.69 0 00-14.22 12.78l-11.31 99.83h25.54l11.32-99.83a11.17 11.17 0 00-2.698-9.02 11.173 11.173 0 00-8.632-3.76z" fill="#003549" stroke="#003549" stroke-linecap="round" stroke-linejoin="round"></path><path d="M344.292 301.367a98.34 98.34 0 01-20.29 11.14c-12.73 5.3-17.85 6.9-17.85 6.9l3.53 121.8h92.42s-11.85-76.37-11.85-102c0-25.63 1.06-30.63 1.06-30.63l-30.4-7.78-16.62.57z" fill="#3B62B2" stroke="#003549" stroke-linecap="round" stroke-linejoin="round"></path><path d="M334.209 306.497a554.133 554.133 0 00-5.12 62.4c-.53 31.29 5.48 73 5.48 73h-67.71a182.988 182.988 0 0017.87-50.7c5-25.33 9-68.27 10.06-68.8 1.06-.53 36.95-13.82 39.42-15.9z" fill="#003549" stroke="#003549" stroke-linecap="round" stroke-linejoin="round"></path><path d="M303.461 441.907s-6.9-46.67-6.55-57.63c.35-10.96 2.09-48.08 2.09-48.08" stroke="#616161" stroke-linecap="round" stroke-linejoin="round"></path><path d="M372.222 303.317s-8.66 39.77-9.37 72.48c-.71 32.71-3 66.29-3 66.29h54.75s.71-29.88 0-40.13c-.71-10.25-.71-8.13-.71-8.13l21.22 5.48s-13.62-65.59-16.09-72.83c-2.47-7.24-1.24-9.55-2.83-10.79-1.59-1.24-43.97-12.37-43.97-12.37z" fill="#003549" stroke="#003549" stroke-linecap="round" stroke-linejoin="round"></path><path d="M273.332 414.867a33.526 33.526 0 005 6c2.43 2.08 7.64 1 10.41 3.84 2.77 2.84-.26 11.51-3.76 14.54-6 5.17-2.82-10.52-2.82-10.52a23.735 23.735 0 01-6.92 3.25c-3.4.78-12.15-1.88-15.08-2-2.93-.12-7-.68-8.56-3.94-1.56-3.26 8.12-7.19 12.42-8.75a62.954 62.954 0 019.31-2.42z" fill="#fff" stroke="#003549" stroke-linecap="round" stroke-linejoin="round"></path><path d="M254.811 419.467a4.9 4.9 0 00-5.11 1.7c-2 2.63-6 14.51-4.83 16.8 1.17 2.29 4.2-.92 5.64-4.69a25.269 25.269 0 012.44-5.19s1.58.77 2.69-1.29c1.11-2.06 2.23-5.15-.83-7.33z" fill="#fff" stroke="#003549" stroke-linecap="round" stroke-linejoin="round"></path><path d="M260.469 417.397a4.839 4.839 0 00-6.05 1c-2.81 3-.88 15.61.61 19.47 1.49 3.86 4.31 3.38 4.73 1 .42-2.38.9-14.25 1.05-17a14.208 14.208 0 00-.34-4.47z" fill="#fff" stroke="#003549" stroke-linecap="round" stroke-linejoin="round"></path><path d="M266.471 416.037a4.62 4.62 0 00-6.049 1c-2.79 3.17-.731 16.51.799 20.61 1.53 4.1 4.35 3.62 4.75 1.07.4-2.55.761-15.08.881-18a16.115 16.115 0 00-.381-4.68z" fill="#fff" stroke="#003549" stroke-linecap="round" stroke-linejoin="round"></path><path d="M275.252 417.657s-2.33-5.21-6.13-4.35c-3.8.86-5 6-4.3 13.8.7 7.8 2.16 14 4.28 14.22 2.12.22 4.43-4.49 4.85-10.58.42-6.09 1.05-9.73 1.05-9.73" fill="#fff"></path><path d="M275.252 417.657s-2.33-5.21-6.13-4.35c-3.8.86-5 6-4.3 13.8.7 7.8 2.16 14 4.28 14.22 2.12.22 4.43-4.49 4.85-10.58.42-6.09 1.05-9.73 1.05-9.73" stroke="#003549" stroke-linecap="round" stroke-linejoin="round"></path><path d="M324.109 363.147h-23.57v36.18h23.57v-36.18z" fill="#FFD336" stroke="#003549" stroke-linecap="round" stroke-linejoin="round"></path><path d="M313.969 352.607h-4.34v16.74h4.34v-16.74zM316.45 373.277h-10.13v13.23h10.13v-13.23z" fill="#fff" stroke="#003549" stroke-linecap="round" stroke-linejoin="round"></path><path d="M304.672 390.437h13.85M302.602 393.327h17.78" stroke="#003549" stroke-linecap="round" stroke-linejoin="round"></path><path d="M341.82 296.247s-7.61 5.12-9 9.19c-1.39 4.07-7.25 21.39-9.55 27.93-2.3 6.54-15.38 12.2-13.61 13.44 1.77 1.24 18.92 2.82 18.92 2.82s3.89 15.21 4.77 19.1c.88 3.89 6.19 15.73 6.19 15.73s15.73-18.92 18.21-24a80.1 80.1 0 015.83-9.9s6.72 1.59 11 2.3c4.28.71 15.91 1.76 15.38-.18-.53-1.94-6.36-10.43-8.66-18.74-2.3-8.31-.89-26.52-3.71-33.59-2.82-7.07-9-8.13-11.14-8.66-2.14-.53-21.45 1.55-24.63 4.56z" fill="#3B62B2" stroke="#003549" stroke-linecap="round" stroke-linejoin="round"></path><path d="M339.342 290.767s2.3 12.9 2 23.33c-.3 10.43-4.07 33.77-3.89 45.79.179 7.984.827 15.951 1.94 23.86 0 0 17.33-23.86 23.69-43.31 6.36-19.45 8.13-36.06 8.13-37.3 0-1.24.35-30.05.35-30.05s-18.43 19.27-32.22 17.68z" fill="#fff" stroke="#003549" stroke-linecap="round" stroke-linejoin="round"></path><path d="M371.37 285.317c.07-6.48.14-12.23.14-12.23s-18.38 19.27-32.17 17.68c0 0 .65 3.63 1.2 8.6a19.106 19.106 0 005.92 2.71c6.38 1.28 13.53-2.29 18.38-8.42 1.79-2.26 4.16-5.34 6.53-8.34zM383.981 226.767c9.714 0 17.59-7.795 17.59-17.41s-7.876-17.41-17.59-17.41c-9.715 0-17.59 7.795-17.59 17.41s7.875 17.41 17.59 17.41z" fill="#003549" stroke="#003549" stroke-linecap="round" stroke-linejoin="round"></path><path d="M312.75 239.777s-9.44-2.56-11-7.66c-1.56-5.1 4.09-23 22.47-32.17 18.38-9.17 35.24-4.09 42.64-2.05 7.4 2.04 12.77 5.88 17.62 19.41 4.85 13.53 5.1 24 3.57 29.1a72.448 72.448 0 01-3.32 8.94s-9.44 1-12-2.81c-2.56-3.81-1.53-23-12.51-27.57s-31.91-2-37 2.55-10.47 12.26-10.47 12.26z" fill="#003549" stroke="#003549" stroke-linecap="round" stroke-linejoin="round"></path><path d="M311.219 236.457s2.3 14.55 2.3 22.46 6.38 18.9 9.7 22c3.32 3.1 14.3 13.53 20.68 14.81 6.38 1.28 13.53-2.3 18.38-8.43s14.3-18.38 14.3-18.38a9.093 9.093 0 009.7-6.38c2.56-7.41 1.28-15.83-3.06-16.85-4.34-1.02-7.4 4.08-7.4 4.08s-3.58-13.78-8.17-20.68l-6.64-10 8.47-10.59a1.085 1.085 0 00.08-1.24 1.09 1.09 0 00-.3-.32 1.093 1.093 0 00-1.49.21l-8.29 10.67s-16.34-2.81-30.64 4.34-17.62 14.3-17.62 14.3z" fill="#fff" stroke="#003549" stroke-linecap="round" stroke-linejoin="round"></path><path d="M363.679 250.827l-2.3 3.07M332.16 268.367s.51 1.53 3.83 2.3a8.214 8.214 0 008.42-3.06M336 276.577c3.148.71 6.427.589 9.514-.35a18.624 18.624 0 008.096-5.01s-2.29 9.7-6.89 11.49c-4.6 1.79-4.85-3.07-4.85-3.07l-5.87-3.06z" stroke="#003549" stroke-linecap="round" stroke-linejoin="round"></path><path d="M345.18 257.137a17.642 17.642 0 0116.08-4.34M328.58 256.627s-5.61-5.62-11.49-2.56" stroke="#003549" stroke-width="2" stroke-linecap="round" stroke-linejoin="round"></path><path d="M315.312 252.797l2.8 2.81M343.391 243.347s7.61-8.77 18.61-.51M328.071 243.087s-6.89-5.36-13.79.77" stroke="#003549" stroke-linecap="round" stroke-linejoin="round"></path><path d="M351.19 255.767a1.243 1.243 0 01-.742 1.185 1.243 1.243 0 01-1.716-.906 1.242 1.242 0 012.096-1.107c.22.221.35.516.362.828zM321.999 254.697a1.24 1.24 0 11-2.478.02 1.24 1.24 0 012.478-.02z" fill="#003549"></path><path d="M382.33 229.797s.88 11.49-1.24 20.15l3.36 1.06s2.65-13.26 1.41-20.68l-3.53-.53z" fill="#FFD336" stroke="#003549" stroke-linecap="round" stroke-linejoin="round"></path><path d="M359.492 196.187a31.246 31.246 0 0115.74 18.21c4.06 13.08 3.53 17.15 6 18.56 2.47 1.41 7.25 2.3 7.42-.88.17-3.18-.93-17.37-8-26.17-5.3-6.7-16.74-9.54-21.16-9.72zM383.732 247.417c-5.09-1.56-10.68 2-12.5 7.91-1.68 5.47.46 11.05 4.8 13.11a66.735 66.735 0 01-13.95 21.77 4.728 4.728 0 00-3.32.84c-1.82 1.23-2.62 3.24-1.77 4.5.85 1.26 3 1.28 4.83.06s2.48-3 1.9-4.22a67.721 67.721 0 0014.22-22.31c4.86 1 10-2.48 11.71-8.11 1.82-5.92-.83-11.99-5.92-13.55z" fill="#FFD336" stroke="#003549" stroke-linecap="round" stroke-linejoin="round"></path><path d="M388.051 258.977c-.86 3.78-4.27 6.24-7.62 5.48-3.35-.76-5.37-4.45-4.51-8.23.86-3.78 4.27-6.24 7.62-5.49 3.35.75 5.37 4.45 4.51 8.24z" fill="#FFD336" stroke="#003549" stroke-linecap="round" stroke-linejoin="round"></path><path d="M387.071 321.347s-4.95-12.37-6-14.67c-1.05-2.3 7.6-15.91 9-17.86 1.4-1.95 4.06-6 4.06-6.89 0-.89-10.07-10.79-12.2-12.38-2.13-1.59-5.65 2-5.65 2s-9.19 12.2-9.19 13.61c0 1.41 4.41 5.83 4.41 5.83s-6.89 9.9-6 13.79c.89 3.89 4.42 7.25 4.42 7.25l4.95 19.09 12.2-9.77z" fill="#fff" stroke="#003549" stroke-linecap="round" stroke-linejoin="round"></path><path d="M371.512 290.937s6-4.77 5.48-6.18a2.244 2.244 0 00-2.29-1.24M375.762 273.087c.53 0 16.08 10.25 15.73 12a15.496 15.496 0 01-1.41 3.71" stroke="#003549" stroke-linecap="round" stroke-linejoin="round"></path><path d="M377.531 271.497s14.67 9.19 15 10.78a3.244 3.244 0 01-1.06 2.83" stroke="#003549" stroke-linecap="round" stroke-linejoin="round"></path><path d="M379.121 269.907s15.38 10.43 15 12a10.874 10.874 0 01-1.94 3.53" stroke="#003549" stroke-linecap="round" stroke-linejoin="round"></path><path d="M389.19 319.937l-23.69 13.64s30.76 73.18 36.42 83.08c5.66 9.9 20.86 12.2 28.82 9.55 7.96-2.65 11.84-18.56 9.19-25.28-2.65-6.72-21.75-36.09-30.93-50.77s-19.81-30.22-19.81-30.22z" fill="#003549" stroke="#003549" stroke-linecap="round" stroke-linejoin="round"></path><path d="M376.672 358.577s26 50 32.66 60M391.332 325.867l36.67 56" stroke="#616161" stroke-linecap="round" stroke-linejoin="round"></path><path d="M287.35 253.437v-32.19a4.68 4.68 0 00-4.68-4.68h-78.51a4.68 4.68 0 00-4.68 4.68v32.19a4.683 4.683 0 004.68 4.68h67.42l15.35 14.77-3.07-14.94a4.68 4.68 0 003.49-4.51z" fill="#fff" stroke="#003549" stroke-linecap="round" stroke-linejoin="round"></path><path d="M227.908 240.217a3.51 3.51 0 100-7.02 3.51 3.51 0 000 7.02zM243.408 240.217a3.51 3.51 0 100-7.02 3.51 3.51 0 000 7.02zM258.92 240.217a3.51 3.51 0 100-7.02 3.51 3.51 0 000 7.02z" fill="#003549"></path><path d="M212.229 252.697v-7.2l-7.57-1.68a19.63 19.63 0 00-1.73-4.2l4.15-6.54-5.08-5.09-6.54 4.16a18.725 18.725 0 00-4.19-1.73l-1.69-7.57h-7.2l-1.68 7.57a18.634 18.634 0 00-4.2 1.73l-6.5-4.16-5.09 5.09 4.09 6.5a18.708 18.708 0 00-1.73 4.2l-7.57 1.68v7.2l7.57 1.69a18.862 18.862 0 001.73 4.23l-4.16 6.54 5.09 5.09 6.54-4.16a19.229 19.229 0 004.2 1.74l1.68 7.56h7.2l1.69-7.56a19.27 19.27 0 004.19-1.74l6.54 4.16 5.09-5.09-4.13-6.54a19.748 19.748 0 001.73-4.19l7.57-1.69zm-26.23 5.7a9.303 9.303 0 01-9.121-11.115 9.302 9.302 0 0112.68-6.777 9.3 9.3 0 01-3.559 17.892z" fill="#003549" stroke="#003549" stroke-linecap="round" stroke-linejoin="round"></path><path d="M148.772 441.817h165.4v-6.67h-165.4v6.67z" fill="#fff" stroke="#003549" stroke-linecap="round" stroke-linejoin="round"></path><path d="M123.371 441.817h144.16v-6.67h-144.16v6.67zM120.581 423.277h137.92l-14.87-105.29h-137.92l14.87 105.29z" fill="#fff" stroke="#003549" stroke-linecap="round" stroke-linejoin="round"></path><path d="M114.87 423.277h137.92l-14.87-105.29H100l14.87 105.29z" fill="#003549" stroke="#003549" stroke-linecap="round" stroke-linejoin="round"></path><path d="M157.129 374.337l-13.84 67.48h35.59l13.84-67.48h-35.59zm24.14 20a1.253 1.253 0 01-1.23 1l-20.16-.2a1.259 1.259 0 01-1.21-1.55l1.82-7.57a1.252 1.252 0 011.23-1l20.17.19c.188.004.373.05.541.134a1.252 1.252 0 01.659 1.416l-1.82 7.58z" fill="#fff" stroke="#003549" stroke-linecap="round" stroke-linejoin="round"></path><path d="M19.25 446.657h465.5v-4.84H19.25v4.84z" fill="#003549" stroke="#003549" stroke-linecap="round" stroke-linejoin="round"></path><path d="M352.861 122.107l-2.94-8.53h-29.53l2.67 50h68.66v-41.47h-38.86z" stroke="#003549" stroke-linecap="round" stroke-linejoin="round"></path><path d="M391.722 163.577l5.86-45.81h-46.5M193.082 146.881c4.357-18.578-7.171-37.17-25.748-41.527-18.577-4.357-37.169 7.17-41.527 25.747-4.357 18.578 7.171 37.17 25.748 41.527 18.577 4.357 37.17-7.17 41.527-25.747z" stroke="#003549" stroke-linecap="round" stroke-linejoin="round"></path><path d="M186.535 145.485c3.576-14.954-5.647-29.975-20.601-33.552-14.954-3.576-29.976 5.647-33.552 20.601-3.577 14.954 5.647 29.976 20.601 33.552 14.954 3.576 29.975-5.647 33.552-20.601z" stroke="#003549" stroke-linecap="round" stroke-linejoin="round"></path><path d="M163.142 138.997a3.694 3.694 0 01-2.278 3.409 3.695 3.695 0 01-4.022-.8 3.688 3.688 0 01.56-5.677 3.69 3.69 0 015.74 3.068v0zM159.34 113.247v6.89M159.34 157.997v6.88M141.09 120.807l4.86 4.87M172.73 152.447l4.86 4.87M133.531 139.067h6.88M178.27 139.067h6.88M141.09 157.317l4.86-4.87M172.73 125.677l4.86-4.87M155.76 138.997h-10.19M159.453 135.307v-13.45M295.08 113.577h-79.33v50.67h79.33v-50.67z" stroke="#003549" stroke-linecap="round" stroke-linejoin="round"></path><path d="M215.75 113.577l39.66 25.33 39.67-25.33M215.75 164.247l30-27.34M294.703 164.247l-30-27.34" stroke="#003549" stroke-linecap="round" stroke-linejoin="round"></path></svg> 